<svg xmlns="http://www.w3.org/2000/svg" xmlns:xlink="http://www.w3.org/1999/xlink" width="500" zoomAndPan="magnify" viewBox="0 0 375 374.999991" height="500" preserveAspectRatio="xMidYMid meet" version="1.0"><defs><clipPath id="id1"><path d="M 30.820312 21.925781 L 330.820312 21.925781 L 330.820312 345.925781 L 30.820312 345.925781 Z M 30.820312 21.925781 " clip-rule="nonzero"/></clipPath><clipPath id="id2"><path d="M 81.171875 45.339844 L 290.421875 45.339844 L 290.421875 88.089844 L 81.171875 88.089844 Z M 81.171875 45.339844 " clip-rule="nonzero"/></clipPath><clipPath id="id3"><path d="M 4 186 L 111 186 L 111 341 L 4 341 Z M 4 186 " clip-rule="nonzero"/></clipPath><clipPath id="id4"><path d="M -14.332031 330.429688 L 1.671875 183.546875 L 140.351562 198.660156 L 124.34375 345.539062 Z M -14.332031 330.429688 " clip-rule="nonzero"/></clipPath><clipPath id="id5"><path d="M -14.332031 330.429688 L 1.671875 183.546875 L 140.351562 198.660156 L 124.34375 345.539062 Z M -14.332031 330.429688 " clip-rule="nonzero"/></clipPath><clipPath id="id6"><path d="M 242 124 L 372 124 L 372 338 L 242 338 Z M 242 124 " clip-rule="nonzero"/></clipPath><clipPath id="id7"><path d="M 224.535156 345.570312 L 185.71875 154.472656 L 366.527344 117.75 L 405.34375 308.847656 Z M 224.535156 345.570312 " clip-rule="nonzero"/></clipPath><clipPath id="id8"><path d="M 405.414062 308.832031 L 366.597656 117.734375 L 185.789062 154.460938 L 224.605469 345.558594 Z M 405.414062 308.832031 " clip-rule="nonzero"/></clipPath><clipPath id="id9"><path d="M 144.453125 33.550781 L 217 33.550781 L 217 55 L 144.453125 55 Z M 144.453125 33.550781 " clip-rule="nonzero"/></clipPath><clipPath id="id10"><path d="M 177 75 L 185 75 L 185 82.300781 L 177 82.300781 Z M 177 75 " clip-rule="nonzero"/></clipPath></defs><path fill="#22729f" d="M 154.394531 76.535156 C 158.160156 76.535156 160.320312 72.949219 160.320312 68.15625 C 160.320312 63.730469 158.199219 59.921875 154.359375 59.921875 C 150.589844 59.921875 148.394531 63.511719 148.394531 68.300781 C 148.394531 73.132812 150.664062 76.535156 154.394531 76.535156 " fill-opacity="1" fill-rule="nonzero"/><g clip-path="url(#id1)"><path fill="#22729f" d="M 263.058594 132.144531 C 263.058594 139.007812 257.472656 144.59375 250.613281 144.59375 L 227.652344 144.59375 C 220.789062 144.59375 215.207031 139.007812 215.207031 132.144531 L 215.207031 109.171875 C 215.207031 102.308594 220.789062 96.726562 227.652344 96.726562 L 250.613281 96.726562 C 257.472656 96.726562 263.058594 102.308594 263.058594 109.171875 Z M 263.058594 192.742188 C 263.058594 199.605469 257.472656 205.1875 250.613281 205.1875 L 227.652344 205.1875 C 220.789062 205.1875 215.207031 199.605469 215.207031 192.742188 L 215.207031 169.765625 C 215.207031 162.902344 220.789062 157.320312 227.652344 157.320312 L 250.613281 157.320312 C 257.472656 157.320312 263.058594 162.902344 263.058594 169.765625 Z M 263.058594 253.335938 C 263.058594 260.199219 257.472656 265.785156 250.613281 265.785156 L 227.652344 265.785156 C 220.789062 265.785156 215.207031 260.199219 215.207031 253.335938 L 215.207031 230.363281 C 215.207031 223.5 220.789062 217.917969 227.652344 217.917969 L 250.613281 217.917969 C 257.472656 217.917969 263.058594 223.5 263.058594 230.363281 Z M 211.574219 327.269531 C 210.570312 327.234375 209.566406 327.199219 208.558594 327.164062 C 201.3125 326.925781 193.972656 326.773438 186.613281 326.714844 L 186.613281 287.113281 L 203.644531 287.113281 C 208.019531 287.113281 211.574219 290.261719 211.574219 294.132812 Z M 169.28125 265.785156 C 162.421875 265.785156 156.839844 260.199219 156.839844 253.335938 L 156.839844 230.363281 C 156.839844 223.5 162.421875 217.917969 169.28125 217.917969 L 192.246094 217.917969 C 199.105469 217.917969 204.6875 223.5 204.6875 230.363281 L 204.6875 253.335938 C 204.6875 260.199219 199.105469 265.785156 192.246094 265.785156 Z M 174.914062 326.710938 C 167.554688 326.765625 160.214844 326.898438 152.96875 327.136719 C 151.960938 327.167969 150.957031 327.203125 149.953125 327.238281 L 149.953125 294.132812 C 149.953125 290.261719 153.511719 287.113281 157.886719 287.113281 L 174.914062 287.113281 Z M 146.320312 132.144531 C 146.320312 139.007812 140.738281 144.59375 133.878906 144.59375 L 110.914062 144.59375 C 104.050781 144.59375 98.46875 139.007812 98.46875 132.144531 L 98.46875 109.171875 C 98.46875 102.308594 104.050781 96.726562 110.914062 96.726562 L 133.878906 96.726562 C 140.738281 96.726562 146.320312 102.308594 146.320312 109.171875 Z M 146.320312 192.742188 C 146.320312 199.605469 140.738281 205.1875 133.878906 205.1875 L 110.914062 205.1875 C 104.050781 205.1875 98.46875 199.605469 98.46875 192.742188 L 98.46875 169.765625 C 98.46875 162.902344 104.050781 157.320312 110.914062 157.320312 L 133.878906 157.320312 C 140.738281 157.320312 146.320312 162.902344 146.320312 169.765625 Z M 146.320312 253.335938 C 146.320312 260.199219 140.738281 265.785156 133.878906 265.785156 L 110.914062 265.785156 C 104.050781 265.785156 98.46875 260.199219 98.46875 253.335938 L 98.46875 230.363281 C 98.46875 223.5 104.050781 217.917969 110.914062 217.917969 L 133.878906 217.917969 C 140.738281 217.917969 146.320312 223.5 146.320312 230.363281 Z M 108.929688 55.898438 L 114.523438 55.898438 L 114.523438 65.375 L 123.707031 65.375 L 123.707031 55.898438 L 129.265625 55.898438 L 129.265625 80.5625 L 123.707031 80.5625 L 123.707031 70.242188 L 114.523438 70.242188 L 114.523438 80.5625 L 108.929688 80.5625 Z M 154.503906 55.496094 C 162.074219 55.496094 166.210938 61.167969 166.210938 67.972656 C 166.210938 76.058594 161.308594 80.964844 154.101562 80.964844 C 146.785156 80.964844 142.507812 75.4375 142.507812 68.414062 C 142.507812 61.023438 147.226562 55.496094 154.503906 55.496094 Z M 204.6875 169.765625 L 204.6875 192.742188 C 204.6875 199.605469 199.105469 205.1875 192.246094 205.1875 L 169.28125 205.1875 C 162.421875 205.1875 156.839844 199.605469 156.839844 192.742188 L 156.839844 169.765625 C 156.839844 162.902344 162.421875 157.320312 169.28125 157.320312 L 192.246094 157.320312 C 199.105469 157.320312 204.6875 162.902344 204.6875 169.765625 Z M 192.246094 96.726562 C 199.105469 96.726562 204.6875 102.308594 204.6875 109.171875 L 204.6875 132.144531 C 204.6875 139.007812 199.105469 144.59375 192.246094 144.59375 L 169.28125 144.59375 C 162.421875 144.59375 156.839844 139.007812 156.839844 132.144531 L 156.839844 109.171875 C 156.839844 102.308594 162.421875 96.726562 169.28125 96.726562 Z M 176.488281 55.898438 L 195.433594 55.898438 L 195.433594 60.582031 L 188.703125 60.582031 L 188.703125 80.5625 L 183.109375 80.5625 L 183.109375 60.582031 L 176.488281 60.582031 Z M 207.90625 55.898438 L 223.125 55.898438 L 223.125 60.472656 L 213.503906 60.472656 L 213.503906 65.597656 L 222.574219 65.597656 L 222.574219 70.132812 L 213.503906 70.132812 L 213.503906 75.988281 L 223.632812 75.988281 L 223.632812 80.5625 L 207.90625 80.5625 Z M 236.949219 55.898438 L 242.546875 55.898438 L 242.546875 75.875 L 252.351562 75.875 L 252.351562 80.5625 L 236.949219 80.5625 Z M 330.027344 343.089844 L 329.777344 343.015625 C 329.777344 343.015625 329.488281 342.933594 328.921875 342.769531 C 328.359375 342.609375 327.523438 342.351562 326.433594 342.070312 C 325.339844 341.777344 323.992188 341.417969 322.410156 341.039062 C 321.621094 340.84375 320.769531 340.636719 319.863281 340.414062 C 318.957031 340.203125 317.988281 339.984375 316.972656 339.75 C 314.933594 339.265625 312.679688 338.808594 310.222656 338.292969 C 307.769531 337.753906 305.113281 337.289062 302.273438 336.738281 C 301.628906 336.617188 300.972656 336.492188 300.3125 336.367188 C 300.335938 336.078125 300.351562 335.789062 300.351562 335.492188 L 300.351562 47.257812 C 300.351562 32.824219 290.296875 21.9375 276.964844 21.9375 L 84.5625 21.9375 C 71.230469 21.9375 61.175781 32.824219 61.175781 47.257812 L 61.175781 335.492188 C 61.175781 335.777344 61.191406 336.058594 61.214844 336.335938 C 60.550781 336.453125 59.898438 336.574219 59.253906 336.703125 C 53.578125 337.769531 48.628906 338.792969 44.554688 339.734375 C 43.535156 339.96875 42.574219 340.191406 41.667969 340.398438 C 40.757812 340.621094 39.90625 340.832031 39.117188 341.027344 C 37.535156 341.414062 36.1875 341.769531 35.097656 342.066406 C 34.003906 342.347656 33.167969 342.609375 32.605469 342.769531 C 32.042969 342.929688 31.75 343.015625 31.75 343.015625 L 31.5 343.089844 C 31.109375 343.199219 30.824219 343.558594 30.820312 343.980469 C 30.8125 344.503906 31.230469 344.929688 31.75 344.9375 C 31.75 344.9375 36.40625 344.996094 44.554688 345.097656 C 48.628906 345.148438 53.578125 345.210938 59.253906 345.285156 C 62.089844 345.320312 65.109375 345.359375 68.292969 345.398438 C 71.476562 345.421875 74.824219 345.449219 78.316406 345.476562 C 85.300781 345.527344 92.867188 345.582031 100.871094 345.636719 C 108.878906 345.691406 117.316406 345.765625 126.046875 345.769531 C 143.511719 345.8125 162.136719 345.851562 180.765625 345.898438 C 199.390625 345.851562 218.019531 345.808594 235.480469 345.769531 C 244.210938 345.765625 252.652344 345.6875 260.65625 345.636719 C 268.660156 345.578125 276.226562 345.523438 283.210938 345.476562 C 286.707031 345.449219 290.050781 345.421875 293.234375 345.394531 C 296.417969 345.355469 299.4375 345.320312 302.273438 345.28125 C 307.949219 345.210938 312.898438 345.148438 316.972656 345.097656 C 325.121094 344.996094 329.777344 344.9375 329.777344 344.9375 C 330.183594 344.933594 330.554688 344.664062 330.671875 344.253906 C 330.816406 343.753906 330.53125 343.230469 330.027344 343.089844 " fill-opacity="1" fill-rule="nonzero"/></g><g clip-path="url(#id2)"><path fill="#22729f" d="M 98.445312 45.339844 L 273.148438 45.339844 C 282.679688 45.339844 290.402344 53.082031 290.402344 62.632812 L 290.402344 70.796875 C 290.402344 80.347656 282.679688 88.089844 273.148438 88.089844 L 98.445312 88.089844 C 88.917969 88.089844 81.191406 80.347656 81.191406 70.796875 L 81.191406 62.632812 C 81.191406 53.082031 88.917969 45.339844 98.445312 45.339844 " fill-opacity="1" fill-rule="nonzero"/></g><g clip-path="url(#id3)"><g clip-path="url(#id4)"><g clip-path="url(#id5)"><path fill="#639551" d="M 22.8125 219.042969 C 14.957031 288.257812 43.125 328.941406 109.476562 339.390625 C 110.308594 339.523438 110.222656 340.757812 109.378906 340.785156 C 87.25 341.5 67.457031 338.738281 50.796875 331.308594 C -4.1875 306.78125 -4.046875 236.09375 19.386719 188.480469 C 20.554688 186.105469 23.785156 185.953125 25.199219 188.1875 C 51.800781 230.214844 136.480469 234.117188 89.773438 324.269531 C 45.84375 304.609375 20.917969 271.394531 22.8125 219.042969 " fill-opacity="1" fill-rule="evenodd"/></g></g></g><g clip-path="url(#id6)"><g clip-path="url(#id7)"><g clip-path="url(#id8)"><path fill="#639551" d="M 343.035156 166.957031 C 361.742188 256.96875 329.5625 313.867188 243.449219 335.667969 C 242.367188 335.941406 242.632812 337.554688 243.746094 337.488281 C 272.972656 335.738281 298.703125 329.699219 319.746094 317.90625 C 389.1875 278.984375 380.46875 186.097656 343.855469 126.371094 C 342.03125 123.394531 337.757812 123.585938 336.167969 126.691406 C 306.210938 185.164062 195.175781 200.589844 267.566406 313.398438 C 323.039062 282.214844 351.855469 235.53125 343.035156 166.957031 " fill-opacity="1" fill-rule="evenodd"/></g></g></g><g clip-path="url(#id9)"><path fill="#ffffff" d="M 215.613281 47.816406 C 210.914062 43.167969 205.4375 39.566406 199.335938 37.117188 C 193.441406 34.75 187.214844 33.550781 180.828125 33.550781 C 174.441406 33.550781 168.214844 34.75 162.320312 37.117188 C 156.214844 39.566406 150.738281 43.167969 146.042969 47.816406 C 144.46875 49.371094 144.46875 51.890625 146.042969 53.449219 C 147.613281 55.003906 150.160156 55.003906 151.734375 53.449219 C 167.777344 37.574219 193.878906 37.574219 209.921875 53.449219 C 210.707031 54.226562 211.738281 54.613281 212.765625 54.613281 C 213.796875 54.613281 214.828125 54.226562 215.613281 53.449219 C 217.183594 51.890625 217.183594 49.371094 215.613281 47.816406 Z M 215.613281 47.816406 " fill-opacity="1" fill-rule="nonzero"/></g><path fill="#ffffff" d="M 180.824219 47.648438 C 170.96875 47.648438 161.699219 51.449219 154.722656 58.355469 C 153.148438 59.910156 153.148438 62.429688 154.722656 63.984375 C 156.292969 65.539062 158.839844 65.539062 160.414062 63.984375 C 171.667969 52.851562 189.976562 52.851562 201.230469 63.984375 C 202.015625 64.761719 203.046875 65.152344 204.078125 65.152344 C 205.105469 65.152344 206.136719 64.761719 206.921875 63.984375 C 208.496094 62.429688 208.496094 59.910156 206.921875 58.355469 C 199.945312 51.449219 190.675781 47.648438 180.820312 47.648438 Z M 180.824219 47.648438 " fill-opacity="1" fill-rule="nonzero"/><path fill="#ffffff" d="M 180.824219 62.050781 C 174.800781 62.050781 169.132812 64.371094 164.871094 68.589844 C 163.300781 70.144531 163.300781 72.667969 164.871094 74.222656 C 166.441406 75.777344 168.992188 75.777344 170.5625 74.222656 C 176.21875 68.625 185.425781 68.625 191.082031 74.222656 C 191.867188 75 192.898438 75.386719 193.929688 75.386719 C 194.957031 75.386719 195.988281 75 196.773438 74.222656 C 198.347656 72.667969 198.347656 70.144531 196.773438 68.589844 C 192.511719 64.371094 186.84375 62.050781 180.824219 62.050781 Z M 180.824219 62.050781 " fill-opacity="1" fill-rule="nonzero"/><g clip-path="url(#id10)"><path fill="#ffffff" d="M 184.148438 79 C 184.148438 79.4375 184.0625 79.859375 183.894531 80.265625 C 183.722656 80.667969 183.484375 81.027344 183.167969 81.335938 C 182.855469 81.648438 182.496094 81.886719 182.085938 82.054688 C 181.675781 82.222656 181.25 82.304688 180.804688 82.304688 C 180.363281 82.304688 179.9375 82.222656 179.527344 82.054688 C 179.117188 81.886719 178.757812 81.648438 178.441406 81.335938 C 178.128906 81.027344 177.886719 80.667969 177.71875 80.265625 C 177.550781 79.859375 177.464844 79.4375 177.464844 79 C 177.464844 78.558594 177.550781 78.136719 177.71875 77.734375 C 177.886719 77.328125 178.128906 76.96875 178.441406 76.660156 C 178.757812 76.351562 179.117188 76.109375 179.527344 75.941406 C 179.9375 75.777344 180.363281 75.691406 180.804688 75.691406 C 181.25 75.691406 181.675781 75.777344 182.085938 75.941406 C 182.496094 76.109375 182.855469 76.351562 183.167969 76.660156 C 183.484375 76.96875 183.722656 77.328125 183.894531 77.734375 C 184.0625 78.136719 184.148438 78.558594 184.148438 79 Z M 184.148438 79 " fill-opacity="1" fill-rule="nonzero"/></g></svg>