<svg width="1327" height="1133" viewBox="0 0 1327 1133" fill="none" xmlns="http://www.w3.org/2000/svg">
<g filter="url(#filter0_bf_1_2)">
<ellipse rx="186.681" ry="186.942" transform="matrix(0.707107 0.707107 -0.576361 0.817195 905.936 680.772)" fill="#639551" fill-opacity="0.275"/>
</g>
<g opacity="0.145" filter="url(#filter1_f_1_2)">
<ellipse rx="267.867" ry="324.87" transform="matrix(0.978207 -0.207631 0.371183 0.92856 538.616 557.279)" fill="#2A8DBD"/>
</g>
<path d="M549.475 576.072V584.84H537.571V621H526.627V584.84H514.723V576.072H549.475ZM586.711 602.568C586.711 603.592 586.647 604.659 586.519 605.768H561.751C561.922 607.987 562.626 609.693 563.863 610.888C565.143 612.04 566.701 612.616 568.535 612.616C571.266 612.616 573.165 611.464 574.231 609.16H585.879C585.282 611.507 584.194 613.619 582.615 615.496C581.079 617.373 579.138 618.845 576.791 619.912C574.445 620.979 571.821 621.512 568.919 621.512C565.421 621.512 562.306 620.765 559.575 619.272C556.845 617.779 554.711 615.645 553.175 612.872C551.639 610.099 550.871 606.856 550.871 603.144C550.871 599.432 551.618 596.189 553.111 593.416C554.647 590.643 556.781 588.509 559.511 587.016C562.242 585.523 565.378 584.776 568.919 584.776C572.375 584.776 575.447 585.501 578.135 586.952C580.823 588.403 582.914 590.472 584.407 593.16C585.943 595.848 586.711 598.984 586.711 602.568ZM575.511 599.688C575.511 597.811 574.871 596.317 573.591 595.208C572.311 594.099 570.711 593.544 568.791 593.544C566.957 593.544 565.399 594.077 564.119 595.144C562.882 596.211 562.114 597.725 561.815 599.688H575.511ZM588.389 603.144C588.389 599.432 589.135 596.189 590.629 593.416C592.165 590.643 594.277 588.509 596.965 587.016C599.695 585.523 602.81 584.776 606.309 584.776C610.789 584.776 614.522 585.949 617.509 588.296C620.538 590.643 622.522 593.949 623.461 598.216H611.813C610.831 595.485 608.933 594.12 606.117 594.12C604.111 594.12 602.511 594.909 601.317 596.488C600.122 598.024 599.525 600.243 599.525 603.144C599.525 606.045 600.122 608.285 601.317 609.864C602.511 611.4 604.111 612.168 606.117 612.168C608.933 612.168 610.831 610.803 611.813 608.072H623.461C622.522 612.253 620.538 615.539 617.509 617.928C614.479 620.317 610.746 621.512 606.309 621.512C602.81 621.512 599.695 620.765 596.965 619.272C594.277 617.779 592.165 615.645 590.629 612.872C589.135 610.099 588.389 606.856 588.389 603.144ZM649.155 584.904C653.336 584.904 656.664 586.269 659.139 589C661.656 591.688 662.915 595.4 662.915 600.136V621H652.035V601.608C652.035 599.219 651.416 597.363 650.179 596.04C648.941 594.717 647.277 594.056 645.187 594.056C643.096 594.056 641.432 594.717 640.195 596.04C638.957 597.363 638.339 599.219 638.339 601.608V621H627.395V585.288H638.339V590.024C639.448 588.445 640.941 587.208 642.819 586.312C644.696 585.373 646.808 584.904 649.155 584.904ZM684.856 621.512C681.357 621.512 678.2 620.765 675.384 619.272C672.61 617.779 670.413 615.645 668.792 612.872C667.213 610.099 666.424 606.856 666.424 603.144C666.424 599.475 667.234 596.253 668.856 593.48C670.477 590.664 672.696 588.509 675.512 587.016C678.328 585.523 681.485 584.776 684.984 584.776C688.482 584.776 691.64 585.523 694.456 587.016C697.272 588.509 699.49 590.664 701.112 593.48C702.733 596.253 703.544 599.475 703.544 603.144C703.544 606.813 702.712 610.056 701.048 612.872C699.426 615.645 697.186 617.779 694.328 619.272C691.512 620.765 688.354 621.512 684.856 621.512ZM684.856 612.04C686.946 612.04 688.717 611.272 690.168 609.736C691.661 608.2 692.408 606.003 692.408 603.144C692.408 600.285 691.682 598.088 690.232 596.552C688.824 595.016 687.074 594.248 684.984 594.248C682.85 594.248 681.08 595.016 679.672 596.552C678.264 598.045 677.56 600.243 677.56 603.144C677.56 606.003 678.242 608.2 679.608 609.736C681.016 611.272 682.765 612.04 684.856 612.04ZM718.374 573.64V621H707.43V573.64H718.374ZM740.641 621.512C737.142 621.512 733.985 620.765 731.169 619.272C728.395 617.779 726.198 615.645 724.577 612.872C722.998 610.099 722.209 606.856 722.209 603.144C722.209 599.475 723.019 596.253 724.641 593.48C726.262 590.664 728.481 588.509 731.297 587.016C734.113 585.523 737.27 584.776 740.769 584.776C744.267 584.776 747.425 585.523 750.241 587.016C753.057 588.509 755.275 590.664 756.897 593.48C758.518 596.253 759.329 599.475 759.329 603.144C759.329 606.813 758.497 610.056 756.833 612.872C755.211 615.645 752.971 617.779 750.113 619.272C747.297 620.765 744.139 621.512 740.641 621.512ZM740.641 612.04C742.731 612.04 744.502 611.272 745.953 609.736C747.446 608.2 748.193 606.003 748.193 603.144C748.193 600.285 747.467 598.088 746.017 596.552C744.609 595.016 742.859 594.248 740.769 594.248C738.635 594.248 736.865 595.016 735.457 596.552C734.049 598.045 733.345 600.243 733.345 603.144C733.345 606.003 734.027 608.2 735.393 609.736C736.801 611.272 738.55 612.04 740.641 612.04ZM776.783 584.776C779.3 584.776 781.497 585.288 783.375 586.312C785.295 587.336 786.767 588.68 787.791 590.344V585.288H798.735V620.936C798.735 624.221 798.073 627.187 796.751 629.832C795.471 632.52 793.487 634.653 790.799 636.232C788.153 637.811 784.847 638.6 780.879 638.6C775.588 638.6 771.3 637.341 768.015 634.824C764.729 632.349 762.852 628.979 762.383 624.712H773.199C773.54 626.077 774.351 627.144 775.631 627.912C776.911 628.723 778.489 629.128 780.367 629.128C782.628 629.128 784.42 628.467 785.743 627.144C787.108 625.864 787.791 623.795 787.791 620.936V615.88C786.724 617.544 785.252 618.909 783.375 619.976C781.497 621 779.3 621.512 776.783 621.512C773.839 621.512 771.172 620.765 768.783 619.272C766.393 617.736 764.495 615.581 763.087 612.808C761.721 609.992 761.039 606.749 761.039 603.08C761.039 599.411 761.721 596.189 763.087 593.416C764.495 590.643 766.393 588.509 768.783 587.016C771.172 585.523 773.839 584.776 776.783 584.776ZM787.791 603.144C787.791 600.413 787.023 598.259 785.487 596.68C783.993 595.101 782.159 594.312 779.983 594.312C777.807 594.312 775.951 595.101 774.415 596.68C772.921 598.216 772.175 600.349 772.175 603.08C772.175 605.811 772.921 607.987 774.415 609.608C775.951 611.187 777.807 611.976 779.983 611.976C782.159 611.976 783.993 611.187 785.487 609.608C787.023 608.029 787.791 605.875 787.791 603.144ZM810.236 581.576C808.316 581.576 806.738 581.021 805.5 579.912C804.306 578.76 803.708 577.352 803.708 575.688C803.708 573.981 804.306 572.573 805.5 571.464C806.738 570.312 808.316 569.736 810.236 569.736C812.114 569.736 813.65 570.312 814.844 571.464C816.082 572.573 816.7 573.981 816.7 575.688C816.7 577.352 816.082 578.76 814.844 579.912C813.65 581.021 812.114 581.576 810.236 581.576ZM815.676 585.288V621H804.732V585.288H815.676ZM819.511 603.08C819.511 599.411 820.194 596.189 821.559 593.416C822.967 590.643 824.866 588.509 827.255 587.016C829.645 585.523 832.311 584.776 835.255 584.776C837.773 584.776 839.97 585.288 841.847 586.312C843.767 587.336 845.239 588.68 846.263 590.344V585.288H857.207V621H846.263V615.944C845.197 617.608 843.703 618.952 841.783 619.976C839.906 621 837.709 621.512 835.191 621.512C832.29 621.512 829.645 620.765 827.255 619.272C824.866 617.736 822.967 615.581 821.559 612.808C820.194 609.992 819.511 606.749 819.511 603.08ZM846.263 603.144C846.263 600.413 845.495 598.259 843.959 596.68C842.466 595.101 840.631 594.312 838.455 594.312C836.279 594.312 834.423 595.101 832.887 596.68C831.394 598.216 830.647 600.349 830.647 603.08C830.647 605.811 831.394 607.987 832.887 609.608C834.423 611.187 836.279 611.976 838.455 611.976C840.631 611.976 842.466 611.187 843.959 609.608C845.495 608.029 846.263 605.875 846.263 603.144ZM908.511 602.568C908.511 603.592 908.447 604.659 908.319 605.768H883.551C883.722 607.987 884.426 609.693 885.663 610.888C886.943 612.04 888.501 612.616 890.335 612.616C893.066 612.616 894.965 611.464 896.031 609.16H907.679C907.082 611.507 905.994 613.619 904.415 615.496C902.879 617.373 900.938 618.845 898.591 619.912C896.245 620.979 893.621 621.512 890.719 621.512C887.221 621.512 884.106 620.765 881.375 619.272C878.645 617.779 876.511 615.645 874.975 612.872C873.439 610.099 872.671 606.856 872.671 603.144C872.671 599.432 873.418 596.189 874.911 593.416C876.447 590.643 878.581 588.509 881.311 587.016C884.042 585.523 887.178 584.776 890.719 584.776C894.175 584.776 897.247 585.501 899.935 586.952C902.623 588.403 904.714 590.472 906.207 593.16C907.743 595.848 908.511 598.984 908.511 602.568ZM897.311 599.688C897.311 597.811 896.671 596.317 895.391 595.208C894.111 594.099 892.511 593.544 890.591 593.544C888.757 593.544 887.199 594.077 885.919 595.144C884.682 596.211 883.914 597.725 883.615 599.688H897.311ZM531.683 688.512C528.568 688.512 525.795 687.979 523.363 686.912C520.931 685.845 519.011 684.395 517.603 682.56C516.195 680.683 515.405 678.592 515.235 676.288H526.051C526.179 677.525 526.755 678.528 527.779 679.296C528.803 680.064 530.061 680.448 531.555 680.448C532.92 680.448 533.965 680.192 534.691 679.68C535.459 679.125 535.843 678.421 535.843 677.568C535.843 676.544 535.309 675.797 534.243 675.328C533.176 674.816 531.448 674.261 529.059 673.664C526.499 673.067 524.365 672.448 522.659 671.808C520.952 671.125 519.48 670.08 518.243 668.672C517.005 667.221 516.387 665.28 516.387 662.848C516.387 660.8 516.941 658.944 518.051 657.28C519.203 655.573 520.867 654.229 523.043 653.248C525.261 652.267 527.885 651.776 530.915 651.776C535.395 651.776 538.915 652.885 541.475 655.104C544.077 657.323 545.571 660.267 545.955 663.936H535.843C535.672 662.699 535.117 661.717 534.179 660.992C533.283 660.267 532.088 659.904 530.595 659.904C529.315 659.904 528.333 660.16 527.651 660.672C526.968 661.141 526.627 661.803 526.627 662.656C526.627 663.68 527.16 664.448 528.227 664.96C529.336 665.472 531.043 665.984 533.347 666.496C535.992 667.179 538.147 667.861 539.811 668.544C541.475 669.184 542.925 670.251 544.163 671.744C545.443 673.195 546.104 675.157 546.147 677.632C546.147 679.723 545.549 681.6 544.355 683.264C543.203 684.885 541.517 686.165 539.299 687.104C537.123 688.043 534.584 688.512 531.683 688.512ZM586.186 652.288V688H575.242V683.136C574.133 684.715 572.618 685.995 570.698 686.976C568.821 687.915 566.73 688.384 564.426 688.384C561.696 688.384 559.285 687.787 557.194 686.592C555.104 685.355 553.482 683.584 552.33 681.28C551.178 678.976 550.602 676.267 550.602 673.152V652.288H561.482V671.68C561.482 674.069 562.101 675.925 563.338 677.248C564.576 678.571 566.24 679.232 568.33 679.232C570.464 679.232 572.149 678.571 573.386 677.248C574.624 675.925 575.242 674.069 575.242 671.68V652.288H586.186ZM606.655 688.512C603.541 688.512 600.767 687.979 598.335 686.912C595.903 685.845 593.983 684.395 592.575 682.56C591.167 680.683 590.378 678.592 590.207 676.288H601.023C601.151 677.525 601.727 678.528 602.751 679.296C603.775 680.064 605.034 680.448 606.527 680.448C607.893 680.448 608.938 680.192 609.663 679.68C610.431 679.125 610.815 678.421 610.815 677.568C610.815 676.544 610.282 675.797 609.215 675.328C608.149 674.816 606.421 674.261 604.031 673.664C601.471 673.067 599.338 672.448 597.631 671.808C595.925 671.125 594.453 670.08 593.215 668.672C591.978 667.221 591.359 665.28 591.359 662.848C591.359 660.8 591.914 658.944 593.023 657.28C594.175 655.573 595.839 654.229 598.015 653.248C600.234 652.267 602.858 651.776 605.887 651.776C610.367 651.776 613.887 652.885 616.447 655.104C619.05 657.323 620.543 660.267 620.927 663.936H610.815C610.645 662.699 610.09 661.717 609.151 660.992C608.255 660.267 607.061 659.904 605.567 659.904C604.287 659.904 603.306 660.16 602.623 660.672C601.941 661.141 601.599 661.803 601.599 662.656C601.599 663.68 602.133 664.448 603.199 664.96C604.309 665.472 606.015 665.984 608.319 666.496C610.965 667.179 613.119 667.861 614.783 668.544C616.447 669.184 617.898 670.251 619.135 671.744C620.415 673.195 621.077 675.157 621.119 677.632C621.119 679.723 620.522 681.6 619.327 683.264C618.175 684.885 616.49 686.165 614.271 687.104C612.095 688.043 609.557 688.512 606.655 688.512ZM645.799 678.72V688H640.231C636.263 688 633.169 687.04 630.951 685.12C628.732 683.157 627.623 679.979 627.623 675.584V661.376H623.271V652.288H627.623V643.584H638.567V652.288H645.735V661.376H638.567V675.712C638.567 676.779 638.823 677.547 639.335 678.016C639.847 678.485 640.7 678.72 641.895 678.72H645.799ZM683.639 669.568C683.639 670.592 683.575 671.659 683.447 672.768H658.679C658.849 674.987 659.553 676.693 660.791 677.888C662.071 679.04 663.628 679.616 665.463 679.616C668.193 679.616 670.092 678.464 671.159 676.16H682.807C682.209 678.507 681.121 680.619 679.543 682.496C678.007 684.373 676.065 685.845 673.719 686.912C671.372 687.979 668.748 688.512 665.847 688.512C662.348 688.512 659.233 687.765 656.503 686.272C653.772 684.779 651.639 682.645 650.103 679.872C648.567 677.099 647.799 673.856 647.799 670.144C647.799 666.432 648.545 663.189 650.039 660.416C651.575 657.643 653.708 655.509 656.439 654.016C659.169 652.523 662.305 651.776 665.847 651.776C669.303 651.776 672.375 652.501 675.063 653.952C677.751 655.403 679.841 657.472 681.335 660.16C682.871 662.848 683.639 665.984 683.639 669.568ZM672.439 666.688C672.439 664.811 671.799 663.317 670.519 662.208C669.239 661.099 667.639 660.544 665.719 660.544C663.884 660.544 662.327 661.077 661.047 662.144C659.809 663.211 659.041 664.725 658.743 666.688H672.439ZM709.252 651.904C713.434 651.904 716.762 653.269 719.236 656C721.754 658.688 723.012 662.4 723.012 667.136V688H712.132V668.608C712.132 666.219 711.514 664.363 710.276 663.04C709.039 661.717 707.375 661.056 705.284 661.056C703.194 661.056 701.53 661.717 700.292 663.04C699.055 664.363 698.436 666.219 698.436 668.608V688H687.492V652.288H698.436V657.024C699.546 655.445 701.039 654.208 702.916 653.312C704.794 652.373 706.906 651.904 709.252 651.904ZM748.601 678.72V688H743.033C739.065 688 735.972 687.04 733.753 685.12C731.535 683.157 730.425 679.979 730.425 675.584V661.376H726.073V652.288H730.425V643.584H741.369V652.288H748.537V661.376H741.369V675.712C741.369 676.779 741.625 677.547 742.137 678.016C742.649 678.485 743.503 678.72 744.697 678.72H748.601ZM750.601 670.08C750.601 666.411 751.284 663.189 752.649 660.416C754.057 657.643 755.956 655.509 758.345 654.016C760.735 652.523 763.401 651.776 766.345 651.776C768.863 651.776 771.06 652.288 772.937 653.312C774.857 654.336 776.329 655.68 777.353 657.344V652.288H788.297V688H777.353V682.944C776.287 684.608 774.793 685.952 772.873 686.976C770.996 688 768.799 688.512 766.281 688.512C763.38 688.512 760.735 687.765 758.345 686.272C755.956 684.736 754.057 682.581 752.649 679.808C751.284 676.992 750.601 673.749 750.601 670.08ZM777.353 670.144C777.353 667.413 776.585 665.259 775.049 663.68C773.556 662.101 771.721 661.312 769.545 661.312C767.369 661.312 765.513 662.101 763.977 663.68C762.484 665.216 761.737 667.349 761.737 670.08C761.737 672.811 762.484 674.987 763.977 676.608C765.513 678.187 767.369 678.976 769.545 678.976C771.721 678.976 773.556 678.187 775.049 676.608C776.585 675.029 777.353 672.875 777.353 670.144ZM805.239 657.344C806.263 655.68 807.735 654.336 809.655 653.312C811.575 652.288 813.772 651.776 816.247 651.776C819.191 651.776 821.857 652.523 824.247 654.016C826.636 655.509 828.513 657.643 829.879 660.416C831.287 663.189 831.991 666.411 831.991 670.08C831.991 673.749 831.287 676.992 829.879 679.808C828.513 682.581 826.636 684.736 824.247 686.272C821.857 687.765 819.191 688.512 816.247 688.512C813.729 688.512 811.532 688.021 809.655 687.04C807.777 686.016 806.305 684.672 805.239 683.008V688H794.295V640.64H805.239V657.344ZM820.855 670.08C820.855 667.349 820.087 665.216 818.551 663.68C817.057 662.101 815.201 661.312 812.983 661.312C810.807 661.312 808.951 662.101 807.415 663.68C805.921 665.259 805.175 667.413 805.175 670.144C805.175 672.875 805.921 675.029 807.415 676.608C808.951 678.187 810.807 678.976 812.983 678.976C815.159 678.976 817.015 678.187 818.551 676.608C820.087 674.987 820.855 672.811 820.855 670.08ZM841.316 648.576C839.396 648.576 837.818 648.021 836.58 646.912C835.386 645.76 834.788 644.352 834.788 642.688C834.788 640.981 835.386 639.573 836.58 638.464C837.818 637.312 839.396 636.736 841.316 636.736C843.194 636.736 844.73 637.312 845.924 638.464C847.162 639.573 847.78 640.981 847.78 642.688C847.78 644.352 847.162 645.76 845.924 646.912C844.73 648.021 843.194 648.576 841.316 648.576ZM846.756 652.288V688H835.812V652.288H846.756ZM863.711 640.64V688H852.767V640.64H863.711ZM875.226 648.576C873.306 648.576 871.728 648.021 870.49 646.912C869.296 645.76 868.698 644.352 868.698 642.688C868.698 640.981 869.296 639.573 870.49 638.464C871.728 637.312 873.306 636.736 875.226 636.736C877.104 636.736 878.64 637.312 879.834 638.464C881.072 639.573 881.69 640.981 881.69 642.688C881.69 644.352 881.072 645.76 879.834 646.912C878.64 648.021 877.104 648.576 875.226 648.576ZM880.666 652.288V688H869.722V652.288H880.666ZM884.501 670.08C884.501 666.411 885.184 663.189 886.549 660.416C887.957 657.643 889.856 655.509 892.245 654.016C894.635 652.523 897.301 651.776 900.245 651.776C902.592 651.776 904.725 652.267 906.645 653.248C908.608 654.229 910.144 655.552 911.253 657.216V640.64H922.197V688H911.253V682.88C910.229 684.587 908.757 685.952 906.837 686.976C904.96 688 902.763 688.512 900.245 688.512C897.301 688.512 894.635 687.765 892.245 686.272C889.856 684.736 887.957 682.581 886.549 679.808C885.184 676.992 884.501 673.749 884.501 670.08ZM911.253 670.144C911.253 667.413 910.485 665.259 908.949 663.68C907.456 662.101 905.621 661.312 903.445 661.312C901.269 661.312 899.413 662.101 897.877 663.68C896.384 665.216 895.637 667.349 895.637 670.08C895.637 672.811 896.384 674.987 897.877 676.608C899.413 678.187 901.269 678.976 903.445 678.976C905.621 678.976 907.456 678.187 908.949 676.608C910.485 675.029 911.253 672.875 911.253 670.144ZM926.019 670.08C926.019 666.411 926.701 663.189 928.067 660.416C929.475 657.643 931.373 655.509 933.763 654.016C936.152 652.523 938.819 651.776 941.763 651.776C944.28 651.776 946.477 652.288 948.355 653.312C950.275 654.336 951.747 655.68 952.771 657.344V652.288H963.715V688H952.771V682.944C951.704 684.608 950.211 685.952 948.291 686.976C946.413 688 944.216 688.512 941.699 688.512C938.797 688.512 936.152 687.765 933.763 686.272C931.373 684.736 929.475 682.581 928.067 679.808C926.701 676.992 926.019 673.749 926.019 670.08ZM952.771 670.144C952.771 667.413 952.003 665.259 950.467 663.68C948.973 662.101 947.139 661.312 944.963 661.312C942.787 661.312 940.931 662.101 939.395 663.68C937.901 665.216 937.155 667.349 937.155 670.08C937.155 672.811 937.901 674.987 939.395 676.608C940.931 678.187 942.787 678.976 944.963 678.976C947.139 678.976 948.973 678.187 950.467 676.608C952.003 675.029 952.771 672.875 952.771 670.144ZM967.536 670.08C967.536 666.411 968.219 663.189 969.584 660.416C970.992 657.643 972.891 655.509 975.28 654.016C977.67 652.523 980.336 651.776 983.28 651.776C985.627 651.776 987.76 652.267 989.68 653.248C991.643 654.229 993.179 655.552 994.288 657.216V640.64H1005.23V688H994.288V682.88C993.264 684.587 991.792 685.952 989.872 686.976C987.995 688 985.798 688.512 983.28 688.512C980.336 688.512 977.67 687.765 975.28 686.272C972.891 684.736 970.992 682.581 969.584 679.808C968.219 676.992 967.536 673.749 967.536 670.08ZM994.288 670.144C994.288 667.413 993.52 665.259 991.984 663.68C990.491 662.101 988.656 661.312 986.48 661.312C984.304 661.312 982.448 662.101 980.912 663.68C979.419 665.216 978.672 667.349 978.672 670.08C978.672 672.811 979.419 674.987 980.912 676.608C982.448 678.187 984.304 678.976 986.48 678.976C988.656 678.976 990.491 678.187 991.984 676.608C993.52 675.029 994.288 672.875 994.288 670.144ZM1044.89 669.568C1044.89 670.592 1044.83 671.659 1044.7 672.768H1019.93C1020.1 674.987 1020.81 676.693 1022.05 677.888C1023.33 679.04 1024.88 679.616 1026.72 679.616C1029.45 679.616 1031.35 678.464 1032.41 676.16H1044.06C1043.46 678.507 1042.38 680.619 1040.8 682.496C1039.26 684.373 1037.32 685.845 1034.97 686.912C1032.63 687.979 1030 688.512 1027.1 688.512C1023.6 688.512 1020.49 687.765 1017.76 686.272C1015.03 684.779 1012.89 682.645 1011.36 679.872C1009.82 677.099 1009.05 673.856 1009.05 670.144C1009.05 666.432 1009.8 663.189 1011.29 660.416C1012.83 657.643 1014.96 655.509 1017.69 654.016C1020.42 652.523 1023.56 651.776 1027.1 651.776C1030.56 651.776 1033.63 652.501 1036.32 653.952C1039.01 655.403 1041.1 657.472 1042.59 660.16C1044.13 662.848 1044.89 665.984 1044.89 669.568ZM1033.69 666.688C1033.69 664.811 1033.05 663.317 1031.77 662.208C1030.49 661.099 1028.89 660.544 1026.97 660.544C1025.14 660.544 1023.58 661.077 1022.3 662.144C1021.06 663.211 1020.3 664.725 1020 666.688H1033.69ZM1094.05 669.568C1094.05 670.592 1093.99 671.659 1093.86 672.768H1069.09C1069.26 674.987 1069.97 676.693 1071.21 677.888C1072.49 679.04 1074.04 679.616 1075.88 679.616C1078.61 679.616 1080.51 678.464 1081.57 676.16H1093.22C1092.62 678.507 1091.54 680.619 1089.96 682.496C1088.42 684.373 1086.48 685.845 1084.13 686.912C1081.79 687.979 1079.16 688.512 1076.26 688.512C1072.76 688.512 1069.65 687.765 1066.92 686.272C1064.19 684.779 1062.05 682.645 1060.52 679.872C1058.98 677.099 1058.21 673.856 1058.21 670.144C1058.21 666.432 1058.96 663.189 1060.45 660.416C1061.99 657.643 1064.12 655.509 1066.85 654.016C1069.58 652.523 1072.72 651.776 1076.26 651.776C1079.72 651.776 1082.79 652.501 1085.48 653.952C1088.17 655.403 1090.26 657.472 1091.75 660.16C1093.29 662.848 1094.05 665.984 1094.05 669.568ZM1082.85 666.688C1082.85 664.811 1082.21 663.317 1080.93 662.208C1079.65 661.099 1078.05 660.544 1076.13 660.544C1074.3 660.544 1072.74 661.077 1071.46 662.144C1070.22 663.211 1069.46 664.725 1069.16 666.688H1082.85ZM1143.48 651.904C1147.91 651.904 1151.43 653.248 1154.04 655.936C1156.68 658.624 1158 662.357 1158 667.136V688H1147.12V668.608C1147.12 666.304 1146.5 664.533 1145.27 663.296C1144.07 662.016 1142.41 661.376 1140.28 661.376C1138.14 661.376 1136.46 662.016 1135.22 663.296C1134.02 664.533 1133.43 666.304 1133.43 668.608V688H1122.55V668.608C1122.55 666.304 1121.93 664.533 1120.69 663.296C1119.5 662.016 1117.83 661.376 1115.7 661.376C1113.57 661.376 1111.88 662.016 1110.64 663.296C1109.45 664.533 1108.85 666.304 1108.85 668.608V688H1097.91V652.288H1108.85V656.768C1109.96 655.275 1111.41 654.101 1113.2 653.248C1115 652.352 1117.02 651.904 1119.28 651.904C1121.97 651.904 1124.36 652.48 1126.45 653.632C1128.58 654.784 1130.25 656.427 1131.44 658.56C1132.68 656.597 1134.37 654.997 1136.5 653.76C1138.63 652.523 1140.96 651.904 1143.48 651.904ZM556.067 710.072V755H545.123V736.504H528.099V755H517.155V710.072H528.099V727.672H545.123V710.072H556.067ZM578.303 755.512C574.805 755.512 571.647 754.765 568.831 753.272C566.058 751.779 563.861 749.645 562.239 746.872C560.661 744.099 559.871 740.856 559.871 737.144C559.871 733.475 560.682 730.253 562.303 727.48C563.925 724.664 566.143 722.509 568.959 721.016C571.775 719.523 574.933 718.776 578.431 718.776C581.93 718.776 585.087 719.523 587.903 721.016C590.719 722.509 592.938 724.664 594.559 727.48C596.181 730.253 596.991 733.475 596.991 737.144C596.991 740.813 596.159 744.056 594.495 746.872C592.874 749.645 590.634 751.779 587.775 753.272C584.959 754.765 581.802 755.512 578.303 755.512ZM578.303 746.04C580.394 746.04 582.165 745.272 583.615 743.736C585.109 742.2 585.855 740.003 585.855 737.144C585.855 734.285 585.13 732.088 583.679 730.552C582.271 729.016 580.522 728.248 578.431 728.248C576.298 728.248 574.527 729.016 573.119 730.552C571.711 732.045 571.007 734.243 571.007 737.144C571.007 740.003 571.69 742.2 573.055 743.736C574.463 745.272 576.213 746.04 578.303 746.04ZM620.781 745.72V755H615.213C611.245 755 608.152 754.04 605.933 752.12C603.715 750.157 602.605 746.979 602.605 742.584V728.376H598.253V719.288H602.605V710.584H613.549V719.288H620.717V728.376H613.549V742.712C613.549 743.779 613.805 744.547 614.317 745.016C614.829 745.485 615.683 745.72 616.877 745.72H620.781ZM658.621 736.568C658.621 737.592 658.557 738.659 658.429 739.768H633.661C633.832 741.987 634.536 743.693 635.773 744.888C637.053 746.04 638.611 746.616 640.445 746.616C643.176 746.616 645.075 745.464 646.141 743.16H657.789C657.192 745.507 656.104 747.619 654.525 749.496C652.989 751.373 651.048 752.845 648.701 753.912C646.355 754.979 643.731 755.512 640.829 755.512C637.331 755.512 634.216 754.765 631.485 753.272C628.755 751.779 626.621 749.645 625.085 746.872C623.549 744.099 622.781 740.856 622.781 737.144C622.781 733.432 623.528 730.189 625.021 727.416C626.557 724.643 628.691 722.509 631.421 721.016C634.152 719.523 637.288 718.776 640.829 718.776C644.285 718.776 647.357 719.501 650.045 720.952C652.733 722.403 654.824 724.472 656.317 727.16C657.853 729.848 658.621 732.984 658.621 736.568ZM647.421 733.688C647.421 731.811 646.781 730.317 645.501 729.208C644.221 728.099 642.621 727.544 640.701 727.544C638.867 727.544 637.309 728.077 636.029 729.144C634.792 730.211 634.024 731.725 633.725 733.688H647.421ZM648.189 710.136L632.765 716.6V709.048L648.189 701.624V710.136ZM667.979 715.576C666.059 715.576 664.48 715.021 663.243 713.912C662.048 712.76 661.451 711.352 661.451 709.688C661.451 707.981 662.048 706.573 663.243 705.464C664.48 704.312 666.059 703.736 667.979 703.736C669.856 703.736 671.392 704.312 672.587 705.464C673.824 706.573 674.443 707.981 674.443 709.688C674.443 711.352 673.824 712.76 672.587 713.912C671.392 715.021 669.856 715.576 667.979 715.576ZM673.419 719.288V755H662.475V719.288H673.419ZM693.958 755.512C690.843 755.512 688.07 754.979 685.638 753.912C683.206 752.845 681.286 751.395 679.878 749.56C678.47 747.683 677.68 745.592 677.51 743.288H688.326C688.454 744.525 689.03 745.528 690.054 746.296C691.078 747.064 692.336 747.448 693.83 747.448C695.195 747.448 696.24 747.192 696.966 746.68C697.734 746.125 698.118 745.421 698.118 744.568C698.118 743.544 697.584 742.797 696.518 742.328C695.451 741.816 693.723 741.261 691.334 740.664C688.774 740.067 686.64 739.448 684.934 738.808C683.227 738.125 681.755 737.08 680.518 735.672C679.28 734.221 678.662 732.28 678.662 729.848C678.662 727.8 679.216 725.944 680.326 724.28C681.478 722.573 683.142 721.229 685.318 720.248C687.536 719.267 690.16 718.776 693.19 718.776C697.67 718.776 701.19 719.885 703.75 722.104C706.352 724.323 707.846 727.267 708.23 730.936H698.118C697.947 729.699 697.392 728.717 696.454 727.992C695.558 727.267 694.363 726.904 692.87 726.904C691.59 726.904 690.608 727.16 689.926 727.672C689.243 728.141 688.902 728.803 688.902 729.656C688.902 730.68 689.435 731.448 690.502 731.96C691.611 732.472 693.318 732.984 695.622 733.496C698.267 734.179 700.422 734.861 702.086 735.544C703.75 736.184 705.2 737.251 706.438 738.744C707.718 740.195 708.379 742.157 708.422 744.632C708.422 746.723 707.824 748.6 706.63 750.264C705.478 751.885 703.792 753.165 701.574 754.104C699.398 755.043 696.859 755.512 693.958 755.512ZM718.317 755.512C716.397 755.512 714.819 754.957 713.581 753.848C712.387 752.696 711.789 751.288 711.789 749.624C711.789 747.917 712.387 746.488 713.581 745.336C714.819 744.184 716.397 743.608 718.317 743.608C720.195 743.608 721.731 744.184 722.925 745.336C724.163 746.488 724.781 747.917 724.781 749.624C724.781 751.288 724.163 752.696 722.925 753.848C721.731 754.957 720.195 755.512 718.317 755.512ZM540.579 779.392V812.352C540.579 816.021 539.448 818.965 537.187 821.184C534.925 823.36 531.939 824.448 528.227 824.448C524.472 824.448 521.464 823.339 519.203 821.12C516.941 818.859 515.811 815.787 515.811 811.904H521.635C521.677 814.08 522.232 815.851 523.299 817.216C524.408 818.581 526.051 819.264 528.227 819.264C530.403 819.264 532.024 818.624 533.091 817.344C534.157 816.021 534.691 814.357 534.691 812.352V779.392H540.579ZM581.236 788.928V824H575.412V818.816C574.303 820.608 572.746 822.016 570.74 823.04C568.778 824.021 566.602 824.512 564.212 824.512C561.482 824.512 559.028 823.957 556.852 822.848C554.676 821.696 552.948 819.989 551.668 817.728C550.431 815.467 549.812 812.715 549.812 809.472V788.928H555.572V808.704C555.572 812.16 556.447 814.827 558.196 816.704C559.946 818.539 562.335 819.456 565.364 819.456C568.479 819.456 570.932 818.496 572.724 816.576C574.516 814.656 575.412 811.861 575.412 808.192V788.928H581.236ZM606.238 788.288C610.504 788.288 613.96 789.589 616.606 792.192C619.251 794.752 620.574 798.464 620.574 803.328V824H614.814V804.16C614.814 800.661 613.939 797.995 612.19 796.16C610.44 794.283 608.051 793.344 605.022 793.344C601.95 793.344 599.496 794.304 597.662 796.224C595.87 798.144 594.974 800.939 594.974 804.608V824H589.15V788.928H594.974V793.92C596.126 792.128 597.683 790.741 599.646 789.76C601.651 788.779 603.848 788.288 606.238 788.288ZM635.271 793.728V814.4C635.271 816.107 635.634 817.323 636.359 818.048C637.085 818.731 638.343 819.072 640.135 819.072H644.423V824H639.175C635.933 824 633.501 823.253 631.879 821.76C630.258 820.267 629.447 817.813 629.447 814.4V793.728H624.903V788.928H629.447V780.096H635.271V788.928H644.423V793.728H635.271ZM664.856 824.576C661.57 824.576 658.584 823.829 655.896 822.336C653.25 820.843 651.16 818.731 649.624 816C648.13 813.227 647.384 810.027 647.384 806.4C647.384 802.816 648.152 799.659 649.688 796.928C651.266 794.155 653.4 792.043 656.088 790.592C658.776 789.099 661.784 788.352 665.112 788.352C668.44 788.352 671.448 789.099 674.136 790.592C676.824 792.043 678.936 794.133 680.472 796.864C682.05 799.595 682.84 802.773 682.84 806.4C682.84 810.027 682.029 813.227 680.408 816C678.829 818.731 676.674 820.843 673.944 822.336C671.213 823.829 668.184 824.576 664.856 824.576ZM664.856 819.456C666.946 819.456 668.909 818.965 670.744 817.984C672.578 817.003 674.05 815.531 675.16 813.568C676.312 811.605 676.888 809.216 676.888 806.4C676.888 803.584 676.333 801.195 675.224 799.232C674.114 797.269 672.664 795.819 670.872 794.88C669.08 793.899 667.138 793.408 665.048 793.408C662.914 793.408 660.952 793.899 659.16 794.88C657.41 795.819 656.002 797.269 654.936 799.232C653.869 801.195 653.336 803.584 653.336 806.4C653.336 809.259 653.848 811.669 654.872 813.632C655.938 815.595 657.346 817.067 659.096 818.048C660.845 818.987 662.765 819.456 664.856 819.456ZM700.993 824.576C698.305 824.576 695.895 824.128 693.761 823.232C691.628 822.293 689.943 821.013 688.705 819.392C687.468 817.728 686.785 815.829 686.657 813.696H692.673C692.844 815.445 693.655 816.875 695.105 817.984C696.599 819.093 698.54 819.648 700.929 819.648C703.148 819.648 704.897 819.157 706.177 818.176C707.457 817.195 708.097 815.957 708.097 814.464C708.097 812.928 707.415 811.797 706.049 811.072C704.684 810.304 702.572 809.557 699.713 808.832C697.111 808.149 694.977 807.467 693.313 806.784C691.692 806.059 690.284 805.013 689.089 803.648C687.937 802.24 687.361 800.405 687.361 798.144C687.361 796.352 687.895 794.709 688.961 793.216C690.028 791.723 691.543 790.549 693.505 789.696C695.468 788.8 697.708 788.352 700.225 788.352C704.108 788.352 707.244 789.333 709.633 791.296C712.023 793.259 713.303 795.947 713.473 799.36H707.649C707.521 797.525 706.775 796.053 705.409 794.944C704.087 793.835 702.295 793.28 700.033 793.28C697.943 793.28 696.279 793.728 695.041 794.624C693.804 795.52 693.185 796.693 693.185 798.144C693.185 799.296 693.548 800.256 694.273 801.024C695.041 801.749 695.98 802.347 697.089 802.816C698.241 803.243 699.82 803.733 701.825 804.288C704.343 804.971 706.391 805.653 707.969 806.336C709.548 806.976 710.892 807.957 712.001 809.28C713.153 810.603 713.751 812.331 713.793 814.464C713.793 816.384 713.26 818.112 712.193 819.648C711.127 821.184 709.612 822.4 707.649 823.296C705.729 824.149 703.511 824.576 700.993 824.576ZM741.061 795.392C742.213 793.387 743.92 791.723 746.181 790.4C748.485 789.035 751.152 788.352 754.181 788.352C757.296 788.352 760.112 789.099 762.629 790.592C765.189 792.085 767.195 794.197 768.645 796.928C770.096 799.616 770.821 802.752 770.821 806.336C770.821 809.877 770.096 813.035 768.645 815.808C767.195 818.581 765.189 820.736 762.629 822.272C760.112 823.808 757.296 824.576 754.181 824.576C751.195 824.576 748.549 823.915 746.245 822.592C743.984 821.227 742.256 819.541 741.061 817.536V840.64H735.237V788.928H741.061V795.392ZM764.869 806.336C764.869 803.691 764.336 801.387 763.269 799.424C762.203 797.461 760.752 795.968 758.917 794.944C757.125 793.92 755.141 793.408 752.965 793.408C750.832 793.408 748.848 793.941 747.013 795.008C745.221 796.032 743.771 797.547 742.661 799.552C741.595 801.515 741.061 803.797 741.061 806.4C741.061 809.045 741.595 811.371 742.661 813.376C743.771 815.339 745.221 816.853 747.013 817.92C748.848 818.944 750.832 819.456 752.965 819.456C755.141 819.456 757.125 818.944 758.917 817.92C760.752 816.853 762.203 815.339 763.269 813.376C764.336 811.371 764.869 809.024 764.869 806.336ZM808.567 805.12C808.567 806.229 808.503 807.403 808.375 808.64H780.343C780.557 812.096 781.73 814.805 783.863 816.768C786.039 818.688 788.663 819.648 791.735 819.648C794.253 819.648 796.343 819.072 798.007 817.92C799.714 816.725 800.909 815.147 801.591 813.184H807.863C806.925 816.555 805.047 819.307 802.231 821.44C799.415 823.531 795.917 824.576 791.735 824.576C788.407 824.576 785.421 823.829 782.775 822.336C780.173 820.843 778.125 818.731 776.631 816C775.138 813.227 774.391 810.027 774.391 806.4C774.391 802.773 775.117 799.595 776.567 796.864C778.018 794.133 780.045 792.043 782.647 790.592C785.293 789.099 788.322 788.352 791.735 788.352C795.063 788.352 798.007 789.077 800.567 790.528C803.127 791.979 805.09 793.984 806.455 796.544C807.863 799.061 808.567 801.92 808.567 805.12ZM802.551 803.904C802.551 801.685 802.061 799.787 801.079 798.208C800.098 796.587 798.754 795.371 797.047 794.56C795.383 793.707 793.527 793.28 791.479 793.28C788.535 793.28 786.018 794.219 783.927 796.096C781.879 797.973 780.706 800.576 780.407 803.904H802.551ZM820.159 776.64V824H814.335V776.64H820.159ZM843.461 824.576C840.175 824.576 837.189 823.829 834.501 822.336C831.855 820.843 829.765 818.731 828.229 816C826.735 813.227 825.989 810.027 825.989 806.4C825.989 802.816 826.757 799.659 828.293 796.928C829.871 794.155 832.005 792.043 834.693 790.592C837.381 789.099 840.389 788.352 843.717 788.352C847.045 788.352 850.053 789.099 852.741 790.592C855.429 792.043 857.541 794.133 859.077 796.864C860.655 799.595 861.445 802.773 861.445 806.4C861.445 810.027 860.634 813.227 859.013 816C857.434 818.731 855.279 820.843 852.549 822.336C849.818 823.829 846.789 824.576 843.461 824.576ZM843.461 819.456C845.551 819.456 847.514 818.965 849.349 817.984C851.183 817.003 852.655 815.531 853.765 813.568C854.917 811.605 855.493 809.216 855.493 806.4C855.493 803.584 854.938 801.195 853.829 799.232C852.719 797.269 851.269 795.819 849.477 794.88C847.685 793.899 845.743 793.408 843.653 793.408C841.519 793.408 839.557 793.899 837.765 794.88C836.015 795.819 834.607 797.269 833.541 799.232C832.474 801.195 831.941 803.584 831.941 806.4C831.941 809.259 832.453 811.669 833.477 813.632C834.543 815.595 835.951 817.067 837.701 818.048C839.45 818.987 841.37 819.456 843.461 819.456ZM924.501 788.288C927.231 788.288 929.663 788.864 931.797 790.016C933.93 791.125 935.615 792.811 936.853 795.072C938.09 797.333 938.709 800.085 938.709 803.328V824H932.949V804.16C932.949 800.661 932.074 797.995 930.325 796.16C928.618 794.283 926.293 793.344 923.349 793.344C920.319 793.344 917.909 794.325 916.117 796.288C914.325 798.208 913.429 801.003 913.429 804.672V824H907.669V804.16C907.669 800.661 906.794 797.995 905.045 796.16C903.338 794.283 901.013 793.344 898.069 793.344C895.039 793.344 892.629 794.325 890.837 796.288C889.045 798.208 888.149 801.003 888.149 804.672V824H882.325V788.928H888.149V793.984C889.301 792.149 890.837 790.741 892.757 789.76C894.719 788.779 896.874 788.288 899.221 788.288C902.165 788.288 904.767 788.949 907.029 790.272C909.29 791.595 910.975 793.536 912.085 796.096C913.066 793.621 914.687 791.701 916.949 790.336C919.21 788.971 921.727 788.288 924.501 788.288ZM978.342 805.12C978.342 806.229 978.278 807.403 978.15 808.64H950.118C950.332 812.096 951.505 814.805 953.638 816.768C955.814 818.688 958.438 819.648 961.51 819.648C964.028 819.648 966.118 819.072 967.782 817.92C969.489 816.725 970.684 815.147 971.366 813.184H977.638C976.7 816.555 974.822 819.307 972.006 821.44C969.19 823.531 965.692 824.576 961.51 824.576C958.182 824.576 955.196 823.829 952.55 822.336C949.948 820.843 947.9 818.731 946.406 816C944.913 813.227 944.166 810.027 944.166 806.4C944.166 802.773 944.892 799.595 946.342 796.864C947.793 794.133 949.82 792.043 952.422 790.592C955.068 789.099 958.097 788.352 961.51 788.352C964.838 788.352 967.782 789.077 970.342 790.528C972.902 791.979 974.865 793.984 976.23 796.544C977.638 799.061 978.342 801.92 978.342 805.12ZM972.326 803.904C972.326 801.685 971.836 799.787 970.854 798.208C969.873 796.587 968.529 795.371 966.822 794.56C965.158 793.707 963.302 793.28 961.254 793.28C958.31 793.28 955.793 794.219 953.702 796.096C951.654 797.973 950.481 800.576 950.182 803.904H972.326ZM989.934 776.64V824H984.11V776.64H989.934ZM1015.35 788.288C1017.99 788.288 1020.38 788.864 1022.52 790.016C1024.65 791.125 1026.31 792.811 1027.51 795.072C1028.75 797.333 1029.36 800.085 1029.36 803.328V824H1023.6V804.16C1023.6 800.661 1022.73 797.995 1020.98 796.16C1019.23 794.283 1016.84 793.344 1013.81 793.344C1010.74 793.344 1008.29 794.304 1006.45 796.224C1004.66 798.144 1003.76 800.939 1003.76 804.608V824H997.94V776.64H1003.76V793.92C1004.92 792.128 1006.49 790.741 1008.5 789.76C1010.55 788.779 1012.83 788.288 1015.35 788.288ZM1052.25 824.576C1048.97 824.576 1045.98 823.829 1043.29 822.336C1040.65 820.843 1038.56 818.731 1037.02 816C1035.53 813.227 1034.78 810.027 1034.78 806.4C1034.78 802.816 1035.55 799.659 1037.09 796.928C1038.66 794.155 1040.8 792.043 1043.49 790.592C1046.17 789.099 1049.18 788.352 1052.51 788.352C1055.84 788.352 1058.85 789.099 1061.53 790.592C1064.22 792.043 1066.33 794.133 1067.87 796.864C1069.45 799.595 1070.24 802.773 1070.24 806.4C1070.24 810.027 1069.43 813.227 1067.81 816C1066.23 818.731 1064.07 820.843 1061.34 822.336C1058.61 823.829 1055.58 824.576 1052.25 824.576ZM1052.25 819.456C1054.34 819.456 1056.31 818.965 1058.14 817.984C1059.98 817.003 1061.45 815.531 1062.56 813.568C1063.71 811.605 1064.29 809.216 1064.29 806.4C1064.29 803.584 1063.73 801.195 1062.62 799.232C1061.51 797.269 1060.06 795.819 1058.27 794.88C1056.48 793.899 1054.54 793.408 1052.45 793.408C1050.31 793.408 1048.35 793.899 1046.56 794.88C1044.81 795.819 1043.4 797.269 1042.33 799.232C1041.27 801.195 1040.73 803.584 1040.73 806.4C1040.73 809.259 1041.25 811.669 1042.27 813.632C1043.34 815.595 1044.74 817.067 1046.49 818.048C1048.24 818.987 1050.16 819.456 1052.25 819.456ZM1081.8 794.624C1082.82 792.619 1084.27 791.061 1086.15 789.952C1088.07 788.843 1090.4 788.288 1093.13 788.288V794.304H1091.59C1085.06 794.304 1081.8 797.845 1081.8 804.928V824H1075.97V788.928H1081.8V794.624ZM1099.79 824.384C1098.68 824.384 1097.74 824 1096.97 823.232C1096.2 822.464 1095.82 821.525 1095.82 820.416C1095.82 819.307 1096.2 818.368 1096.97 817.6C1097.74 816.832 1098.68 816.448 1099.79 816.448C1100.85 816.448 1101.75 816.832 1102.47 817.6C1103.24 818.368 1103.63 819.307 1103.63 820.416C1103.63 821.525 1103.24 822.464 1102.47 823.232C1101.75 824 1100.85 824.384 1099.79 824.384Z" fill="#1D1F20"/>
<defs>
<filter id="filter0_bf_1_2" x="485.537" y="228.87" width="840.799" height="903.804" filterUnits="userSpaceOnUse" color-interpolation-filters="sRGB">
<feFlood flood-opacity="0" result="BackgroundImageFix"/>
<feGaussianBlur in="BackgroundImage" stdDeviation="45"/>
<feComposite in2="SourceAlpha" operator="in" result="effect1_backgroundBlur_1_2"/>
<feBlend mode="normal" in="SourceGraphic" in2="effect1_backgroundBlur_1_2" result="shape"/>
<feGaussianBlur stdDeviation="125" result="effect2_foregroundBlur_1_2"/>
</filter>
<filter id="filter1_f_1_2" x="0.100906" y="0.479126" width="1077.03" height="1113.6" filterUnits="userSpaceOnUse" color-interpolation-filters="sRGB">
<feFlood flood-opacity="0" result="BackgroundImageFix"/>
<feBlend mode="normal" in="SourceGraphic" in2="BackgroundImageFix" result="shape"/>
<feGaussianBlur stdDeviation="125" result="effect1_foregroundBlur_1_2"/>
</filter>
</defs>
</svg>
