<svg width="95" height="18" viewBox="0 0 95 18" fill="none" xmlns="http://www.w3.org/2000/svg">
<path d="M4.592 3.94V7.348H10.088V10.516H4.592V14.212H10.808V17.5H0.488V0.651999H10.808V3.94H4.592ZM12.6564 10.804C12.6564 9.412 12.9364 8.196 13.4964 7.156C14.0724 6.116 14.8644 5.316 15.8724 4.756C16.8964 4.196 18.0644 3.916 19.3764 3.916C21.0564 3.916 22.4564 4.356 23.5764 5.236C24.7124 6.116 25.4564 7.356 25.8084 8.956H21.4404C21.0724 7.932 20.3604 7.42 19.3044 7.42C18.5524 7.42 17.9524 7.716 17.5044 8.308C17.0564 8.884 16.8324 9.716 16.8324 10.804C16.8324 11.892 17.0564 12.732 17.5044 13.324C17.9524 13.9 18.5524 14.188 19.3044 14.188C20.3604 14.188 21.0724 13.676 21.4404 12.652H25.8084C25.4564 14.22 24.7124 15.452 23.5764 16.348C22.4404 17.244 21.0404 17.692 19.3764 17.692C18.0644 17.692 16.8964 17.412 15.8724 16.852C14.8644 16.292 14.0724 15.492 13.4964 14.452C12.9364 13.412 12.6564 12.196 12.6564 10.804ZM34.0996 17.692C32.7876 17.692 31.6036 17.412 30.5476 16.852C29.5076 16.292 28.6836 15.492 28.0756 14.452C27.4836 13.412 27.1876 12.196 27.1876 10.804C27.1876 9.428 27.4916 8.22 28.0996 7.18C28.7076 6.124 29.5396 5.316 30.5956 4.756C31.6516 4.196 32.8356 3.916 34.1476 3.916C35.4596 3.916 36.6436 4.196 37.6996 4.756C38.7556 5.316 39.5876 6.124 40.1956 7.18C40.8036 8.22 41.1076 9.428 41.1076 10.804C41.1076 12.18 40.7956 13.396 40.1716 14.452C39.5636 15.492 38.7236 16.292 37.6516 16.852C36.5956 17.412 35.4116 17.692 34.0996 17.692ZM34.0996 14.14C34.8836 14.14 35.5476 13.852 36.0916 13.276C36.6516 12.7 36.9316 11.876 36.9316 10.804C36.9316 9.732 36.6596 8.908 36.1156 8.332C35.5876 7.756 34.9316 7.468 34.1476 7.468C33.3476 7.468 32.6836 7.756 32.1556 8.332C31.6276 8.892 31.3636 9.716 31.3636 10.804C31.3636 11.876 31.6196 12.7 32.1316 13.276C32.6596 13.852 33.3156 14.14 34.0996 14.14ZM56.5329 0.771999V17.5H54.3489V9.916H45.8289V17.5H43.6449V0.771999H45.8289V8.116H54.3489V0.771999H56.5329ZM65.9981 17.716C64.7661 17.716 63.6461 17.436 62.6381 16.876C61.6461 16.316 60.8621 15.524 60.2861 14.5C59.7261 13.46 59.4461 12.26 59.4461 10.9C59.4461 9.556 59.7341 8.372 60.3101 7.348C60.9021 6.308 61.7021 5.516 62.7101 4.972C63.7181 4.412 64.8461 4.132 66.0941 4.132C67.3421 4.132 68.4701 4.412 69.4781 4.972C70.4861 5.516 71.2781 6.3 71.8541 7.324C72.4461 8.348 72.7421 9.54 72.7421 10.9C72.7421 12.26 72.4381 13.46 71.8301 14.5C71.2381 15.524 70.4301 16.316 69.4061 16.876C68.3821 17.436 67.2461 17.716 65.9981 17.716ZM65.9981 15.796C66.7821 15.796 67.5181 15.612 68.2061 15.244C68.8941 14.876 69.4461 14.324 69.8621 13.588C70.2941 12.852 70.5101 11.956 70.5101 10.9C70.5101 9.844 70.3021 8.948 69.8861 8.212C69.4701 7.476 68.9261 6.932 68.2541 6.58C67.5821 6.212 66.8541 6.028 66.0701 6.028C65.2701 6.028 64.5341 6.212 63.8621 6.58C63.2061 6.932 62.6781 7.476 62.2781 8.212C61.8781 8.948 61.6781 9.844 61.6781 10.9C61.6781 11.972 61.8701 12.876 62.2541 13.612C62.6541 14.348 63.1821 14.9 63.8381 15.268C64.4941 15.62 65.2141 15.796 65.9981 15.796ZM80.2696 17.716C79.2616 17.716 78.3576 17.548 77.5576 17.212C76.7576 16.86 76.1256 16.38 75.6616 15.772C75.1976 15.148 74.9416 14.436 74.8936 13.636H77.1496C77.2136 14.292 77.5176 14.828 78.0616 15.244C78.6216 15.66 79.3496 15.868 80.2456 15.868C81.0776 15.868 81.7336 15.684 82.2136 15.316C82.6936 14.948 82.9336 14.484 82.9336 13.924C82.9336 13.348 82.6776 12.924 82.1656 12.652C81.6536 12.364 80.8616 12.084 79.7896 11.812C78.8136 11.556 78.0136 11.3 77.3896 11.044C76.7816 10.772 76.2536 10.38 75.8056 9.868C75.3736 9.34 75.1576 8.652 75.1576 7.804C75.1576 7.132 75.3576 6.516 75.7576 5.956C76.1576 5.396 76.7256 4.956 77.4616 4.636C78.1976 4.3 79.0376 4.132 79.9816 4.132C81.4376 4.132 82.6136 4.5 83.5096 5.236C84.4056 5.972 84.8856 6.98 84.9496 8.26H82.7656C82.7176 7.572 82.4376 7.02 81.9256 6.604C81.4296 6.188 80.7576 5.98 79.9096 5.98C79.1256 5.98 78.5016 6.148 78.0376 6.484C77.5736 6.82 77.3416 7.26 77.3416 7.804C77.3416 8.236 77.4776 8.596 77.7496 8.884C78.0376 9.156 78.3896 9.38 78.8056 9.556C79.2376 9.716 79.8296 9.9 80.5816 10.108C81.5256 10.364 82.2936 10.62 82.8856 10.876C83.4776 11.116 83.9816 11.484 84.3976 11.98C84.8296 12.476 85.0536 13.124 85.0696 13.924C85.0696 14.644 84.8696 15.292 84.4696 15.868C84.0696 16.444 83.5016 16.9 82.7656 17.236C82.0456 17.556 81.2136 17.716 80.2696 17.716ZM90.8167 6.148V13.9C90.8167 14.54 90.9527 14.996 91.2247 15.268C91.4967 15.524 91.9687 15.652 92.6407 15.652H94.2487V17.5H92.2807C91.0647 17.5 90.1527 17.22 89.5447 16.66C88.9367 16.1 88.6327 15.18 88.6327 13.9V6.148H86.9287V4.348H88.6327V1.036H90.8167V4.348H94.2487V6.148H90.8167Z" fill="#1D1F20"/>
</svg>
